# xmcd
#
# Track frame offsets: 
#        150
#        19986
#        40026
#        58253
#        79748
#        104364
#        126961
#        144153
#        165248
#        187944
#
# Disc length: 2766 seconds
#
# Revision: 0
# Processed by: cddbd v1.5.2PL0 Copyright (c) Steve Scherf et al.
# Submitted via: ExactAudioCopy v1.0b3
#
DISCID=7a0acc0a
DTITLE=Gladys Knight and the Pips - Life [Expanded Edition] CD1
DYEAR=1985
DGENRE=Soul
TTITLE0=Strivin'
TTITLE1=Keep Givin' Me Love
TTITLE2=Just Let Me Love You
TTITLE3=Life
TTITLE4=Till I See You Again
TTITLE5=My Time
TTITLE6=Forever
TTITLE7=Do You Wanna Have Some Fun
TTITLE8=Straight Up
TTITLE9=Glitter
EXTD=
EXTT0=
EXTT1=
EXTT2=
EXTT3=
EXTT4=
EXTT5=
EXTT6=
EXTT7=
EXTT8=
EXTT9=
PLAYORDER=
